<?xml version="1.0" encoding="utf-8"?>
<!-- Generator: Adobe Illustrator 16.0.0, SVG Export Plug-In . SVG Version: 6.00 Build 0)  -->
<!DOCTYPE svg PUBLIC "-//W3C//DTD SVG 1.1//EN" "http://www.w3.org/Graphics/SVG/1.1/DTD/svg11.dtd">
<svg version="1.1" id="Layer_1" xmlns="http://www.w3.org/2000/svg" xmlns:xlink="http://www.w3.org/1999/xlink" x="0px" y="0px"
	 width="89.219px" height="78.764px" viewBox="0 0 89.219 78.764" enable-background="new 0 0 89.219 78.764" xml:space="preserve">
<g>
	<g>
		<g>
			<path fill-rule="evenodd" clip-rule="evenodd" fill="#FFFFFF" d="M84.882,25.039c-0.017,0-0.049,0.018-0.064,0.018
				c-0.017,0-0.032,0-0.064,0.016v-0.016c-0.598,0.062-1.26-0.242-2.052-0.631c-2.536-1.293-2.746-3.781-2.746-3.781
				c1.599,0.082,2.536,0.824,3.521,1.52c0.242,0.178,0.549,0.291,0.759,0.5c0.033,0.018,0.049,0.033,0.065,0.033v-0.016
				c0.016,0,0.031,0,0.064,0c0.016,0,0.032-0.018,0.048-0.033v0.033c0.016-0.018,0.032-0.033,0.049-0.049
				c0.129-0.291,0.355-0.5,0.517-0.76c0.646-1.018,1.244-2.051,2.698-2.73c0,0,0.742,2.375-1.147,4.523
				C85.965,24.344,85.463,24.861,84.882,25.039L84.882,25.039z"/>
			<path fill-rule="evenodd" clip-rule="evenodd" fill="#FFFFFF" d="M85.253,28.949c-0.016,0-0.032,0-0.064,0
				c-0.016,0.016-0.032,0.016-0.048,0.016l0,0c-0.614-0.016-1.228-0.371-1.987-0.857c-2.406-1.533-2.359-4.021-2.359-4.021
				c1.584,0.242,2.44,1.066,3.361,1.857c0.226,0.211,0.5,0.355,0.71,0.582c0.017,0.016,0.032,0.033,0.048,0.033v-0.018
				c0.017,0,0.05,0.018,0.065,0.018c0.017-0.018,0.032-0.018,0.049-0.033l0.016,0.016c0.017,0,0.032-0.016,0.032-0.031
				c0.162-0.275,0.42-0.469,0.598-0.695c0.76-0.953,1.454-1.922,2.973-2.439c0,0,0.485,2.439-1.599,4.379
				C86.401,28.367,85.851,28.836,85.253,28.949L85.253,28.949z"/>
			<path fill-rule="evenodd" clip-rule="evenodd" fill="#FFFFFF" d="M85.544,33.23c-0.017,0-0.031,0-0.064,0
				c-0.017,0-0.032,0.016-0.049,0.016l-0.016-0.016c-0.598-0.033-1.195-0.42-1.922-0.938c-2.327-1.664-2.166-4.135-2.166-4.135
				c1.567,0.307,2.392,1.195,3.264,2.018c0.227,0.211,0.484,0.373,0.679,0.613c0.016,0.018,0.032,0.033,0.048,0.033v-0.016
				c0.033,0,0.049,0.016,0.065,0.016c0.015,0,0.032-0.016,0.064-0.016v0.016c0.016,0,0.032-0.016,0.048-0.033
				c0.162-0.258,0.42-0.451,0.63-0.678c0.792-0.904,1.535-1.842,3.069-2.293c0,0,0.372,2.471-1.809,4.312
				C86.724,32.695,86.159,33.148,85.544,33.23L85.544,33.23z"/>
			<path fill-rule="evenodd" clip-rule="evenodd" fill="#FFFFFF" d="M85.093,37.365c-0.018,0-0.033-0.016-0.065-0.016
				c-0.017,0-0.032,0-0.049,0.016V37.35c-0.613-0.064-1.195-0.484-1.89-1.035c-2.246-1.775-1.955-4.248-1.955-4.248
				c1.567,0.404,2.327,1.324,3.167,2.197c0.21,0.209,0.468,0.387,0.645,0.646c0.018,0.016,0.033,0.031,0.05,0.031v-0.016
				c0.016,0,0.048,0.016,0.064,0.016c0.016,0,0.033-0.016,0.049-0.016v0.016c0.032,0,0.048-0.016,0.048-0.031
				c0.194-0.26,0.452-0.42,0.679-0.646c0.84-0.855,1.615-1.762,3.182-2.133c0,0,0.242,2.488-2.02,4.217
				c-0.71,0.533-1.292,0.953-1.904,1.002V37.365z"/>
			<path fill-rule="evenodd" clip-rule="evenodd" fill="#FFFFFF" d="M84.721,42.42c-0.018,0-0.05-0.016-0.065-0.016
				s-0.032,0-0.048,0v-0.016c-0.614-0.113-1.131-0.598-1.777-1.211c-2.036-1.986-1.485-4.41-1.485-4.41
				c1.501,0.549,2.163,1.551,2.906,2.504c0.178,0.227,0.42,0.42,0.582,0.693c0,0.018,0.017,0.033,0.032,0.033v-0.016
				c0.032,0.016,0.048,0.016,0.064,0.033c0.016,0,0.049-0.018,0.065-0.018v0.018c0.016,0,0.032-0.018,0.048-0.033
				c0.21-0.227,0.484-0.371,0.727-0.566c0.921-0.742,1.81-1.566,3.393-1.76c0,0-0.016,2.471-2.455,3.957
				c-0.742,0.453-1.372,0.807-1.986,0.791V42.42z"/>
			<path fill-rule="evenodd" clip-rule="evenodd" fill="#FFFFFF" d="M83.25,47.283c-0.016,0-0.032,0-0.064-0.016
				c-0.017,0-0.032,0-0.049-0.016l0,0c-0.565-0.26-0.985-0.842-1.47-1.568c-1.6-2.375-0.565-4.635-0.565-4.635
				c1.356,0.855,1.81,1.953,2.326,3.053c0.146,0.275,0.339,0.518,0.436,0.807c0,0.033,0.017,0.049,0.033,0.049v-0.016
				c0.017,0.016,0.032,0.031,0.048,0.031c0.033,0.016,0.049,0,0.064,0v0.033c0.017,0,0.032-0.018,0.05-0.033
				c0.258-0.178,0.564-0.258,0.839-0.402c1.05-0.551,2.084-1.18,3.684-1.051c0,0-0.517,2.439-3.215,3.393
				C84.543,47.203,83.848,47.412,83.25,47.283L83.25,47.283z"/>
			<path fill-rule="evenodd" clip-rule="evenodd" fill="#FFFFFF" d="M80.973,52.146c-0.033-0.018-0.049-0.018-0.065-0.033
				c-0.016-0.016-0.032-0.016-0.048-0.031l0,0c-0.501-0.355-0.792-1.02-1.115-1.842c-1.082-2.635,0.404-4.654,0.404-4.654
				c1.146,1.115,1.373,2.295,1.648,3.475c0.08,0.291,0.226,0.564,0.258,0.871c0,0.033,0,0.049,0.017,0.066l0.016-0.018
				c0.017,0.018,0.017,0.033,0.032,0.049c0.017,0,0.049,0,0.065,0l-0.017,0.033c0.032,0,0.049,0,0.063-0.016
				c0.292-0.131,0.599-0.146,0.89-0.227c1.163-0.324,2.294-0.729,3.828-0.275c0,0-1.002,2.277-3.828,2.666
				c-0.89,0.113-1.6,0.178-2.148-0.082V52.146z"/>
			<path fill-rule="evenodd" clip-rule="evenodd" fill="#FFFFFF" d="M78.744,56.701c-0.016-0.016-0.033-0.031-0.049-0.031
				c-0.032-0.018-0.048-0.033-0.064-0.033v-0.016c-0.484-0.355-0.792-1.002-1.114-1.826c-1.082-2.648,0.403-4.652,0.403-4.652
				c1.146,1.115,1.373,2.293,1.648,3.457c0.08,0.307,0.226,0.582,0.258,0.889c0,0.031,0,0.049,0.017,0.064l0.016-0.033
				c0.017,0.033,0.032,0.049,0.032,0.049c0.033,0.018,0.049,0.018,0.065,0.018v0.016c0.015,0.016,0.031,0.016,0.048,0
				c0.291-0.129,0.598-0.146,0.904-0.227c1.147-0.34,2.278-0.727,3.813-0.275c0,0-1.002,2.279-3.829,2.65
				c-0.872,0.129-1.6,0.193-2.148-0.064V56.701z"/>
			<path fill-rule="evenodd" clip-rule="evenodd" fill="#FFFFFF" d="M75.384,60.949c-0.018-0.016-0.033-0.031-0.05-0.047
				c-0.016-0.018-0.032-0.018-0.048-0.033v-0.016c-0.42-0.438-0.598-1.131-0.775-1.988c-0.581-2.811,1.228-4.506,1.228-4.506
				c0.938,1.291,0.938,2.488,1.018,3.699c0.017,0.307,0.113,0.598,0.081,0.904c0,0.031,0,0.049,0.017,0.064l0.016-0.016
				c0,0.016,0.017,0.049,0.032,0.064c0.017,0,0.032,0,0.064,0.016l-0.016,0.016c0.016,0,0.032,0.018,0.048,0
				c0.308-0.064,0.614-0.031,0.921-0.064c1.196-0.113,2.391-0.307,3.812,0.42c0,0-1.39,2.053-4.248,1.924
				c-0.89-0.033-1.6-0.098-2.1-0.453V60.949z"/>
			<path fill-rule="evenodd" clip-rule="evenodd" fill="#FFFFFF" d="M71.635,64.246c0-0.018-0.016-0.018-0.032-0.049
				c-0.016,0-0.031-0.018-0.031-0.033v-0.016c-0.34-0.5-0.389-1.229-0.405-2.1c-0.063-2.859,2.02-4.217,2.02-4.217
				c0.68,1.453,0.469,2.633,0.324,3.828c-0.032,0.307,0,0.615-0.082,0.904c0,0.033,0,0.049,0,0.064l0.033-0.016
				c0,0.033,0,0.049,0.017,0.064c0.016,0.016,0.032,0.033,0.048,0.033l-0.016,0.016c0.016,0.016,0.032,0.016,0.063,0.016
				c0.307-0.016,0.614,0.082,0.904,0.098c1.212,0.098,2.408,0.129,3.684,1.098c0,0-1.744,1.777-4.539,1.131
				c-0.856-0.193-1.551-0.387-1.971-0.822H71.635z"/>
			<path fill-rule="evenodd" clip-rule="evenodd" fill="#FFFFFF" d="M67.807,67.783c-0.017-0.016-0.032-0.033-0.032-0.049
				c-0.017-0.016-0.032-0.031-0.049-0.049h0.017c-0.323-0.533-0.355-1.242-0.34-2.131c0.017-2.861,2.149-4.137,2.149-4.137
				c0.646,1.471,0.388,2.633,0.21,3.828c-0.048,0.309-0.017,0.615-0.113,0.922c0,0.016,0,0.031,0,0.049l0.016-0.018
				c0,0.033,0.017,0.049,0.017,0.066c0.017,0.016,0.033,0.031,0.064,0.031l-0.016,0.016c0.016,0.018,0.032,0.018,0.048,0.018
				c0.307,0,0.614,0.096,0.921,0.145c1.195,0.129,2.391,0.193,3.635,1.211c0,0-1.81,1.713-4.571,0.969
				C68.906,68.43,68.227,68.219,67.807,67.783L67.807,67.783z"/>
			<path fill-rule="evenodd" clip-rule="evenodd" fill="#FFFFFF" d="M63.251,70.109c0-0.016-0.017-0.033-0.017-0.049
				c-0.016-0.016-0.016-0.033-0.032-0.049l0.017-0.016c-0.21-0.564-0.097-1.275,0.098-2.133c0.598-2.795,2.956-3.617,2.956-3.617
				c0.322,1.566-0.162,2.664-0.582,3.795c-0.112,0.275-0.145,0.598-0.291,0.855c-0.016,0.033-0.016,0.049-0.016,0.066H65.4
				c0,0.016,0,0.031,0.017,0.064c0,0,0.017,0.016,0.032,0.031l-0.016,0.018c0.016,0.016,0.032,0.016,0.048,0.031
				c0.308,0.049,0.581,0.211,0.872,0.307c1.146,0.389,2.294,0.695,3.312,1.939c0,0-2.116,1.309-4.668,0.016
				c-0.792-0.389-1.422-0.727-1.729-1.26H63.251z"/>
			<path fill-rule="evenodd" clip-rule="evenodd" fill="#FFFFFF" d="M58.907,72.758c0-0.016-0.017-0.031-0.017-0.064
				c-0.016-0.016-0.016-0.031-0.032-0.049h0.017c-0.211-0.58-0.098-1.275,0.097-2.148c0.598-2.793,2.939-3.617,2.939-3.617
				c0.34,1.566-0.146,2.664-0.565,3.795c-0.113,0.275-0.145,0.598-0.29,0.873c-0.017,0.016-0.017,0.033-0.017,0.049h0.017
				c0,0.016,0,0.047,0.016,0.064c0,0.016,0.017,0.033,0.032,0.033l-0.016,0.016c0.016,0.016,0.031,0.031,0.048,0.031
				c0.308,0.049,0.582,0.211,0.872,0.307c1.147,0.373,2.311,0.695,3.329,1.924c0,0-2.117,1.324-4.686,0.049
				c-0.775-0.404-1.405-0.744-1.729-1.262H58.907z"/>
			<path fill-rule="evenodd" clip-rule="evenodd" fill="#FFFFFF" d="M54.609,73.906c-0.016-0.018-0.016-0.049-0.016-0.064
				c-0.018-0.018-0.018-0.033-0.033-0.049h0.016c-0.145-0.598,0.065-1.293,0.356-2.133c0.92-2.697,3.36-3.23,3.36-3.23
				c0.13,1.582-0.468,2.617-1.033,3.699c-0.13,0.258-0.211,0.564-0.389,0.824c-0.016,0.016-0.016,0.031-0.016,0.064L56.871,73
				c0,0.033,0,0.049,0,0.064c0.017,0.018,0.017,0.033,0.049,0.049l-0.032,0.018c0.016,0.016,0.032,0.016,0.048,0.031
				c0.308,0.08,0.55,0.275,0.824,0.404c1.099,0.516,2.197,0.969,3.069,2.311c0,0-2.262,1.049-4.637-0.518
				C55.449,74.875,54.868,74.455,54.609,73.906L54.609,73.906z"/>
			<path fill-rule="evenodd" clip-rule="evenodd" fill="#FFFFFF" d="M49.633,74.504c0-0.018,0-0.033,0-0.064
				c-0.016-0.018-0.016-0.033-0.016-0.064l0,0c0.016-0.631,0.403-1.262,0.889-2.037c1.615-2.471,4.184-2.406,4.184-2.406
				c-0.259,1.631-1.131,2.52-1.938,3.457c-0.21,0.227-0.372,0.518-0.614,0.727c-0.016,0.016-0.032,0.033-0.032,0.049h0.032
				c-0.016,0.033-0.016,0.049-0.032,0.064c0.017,0.016,0.017,0.049,0.032,0.064h-0.016c0,0.016,0.016,0.031,0.032,0.049
				c0.274,0.162,0.485,0.42,0.727,0.613c0.969,0.791,1.971,1.52,2.504,3.086c0,0-2.535,0.5-4.539-1.68
				C50.232,75.699,49.748,75.133,49.633,74.504L49.633,74.504z"/>
			<path fill-rule="evenodd" clip-rule="evenodd" fill="#FFFFFF" d="M44.852,74.906c0-0.016,0-0.047,0-0.064
				c0-0.016,0-0.047,0-0.064l0,0c0.033-0.646,0.452-1.275,0.985-2.035c1.745-2.455,4.362-2.293,4.362-2.293
				c-0.34,1.662-1.261,2.52-2.133,3.439c-0.227,0.242-0.388,0.518-0.646,0.729c-0.017,0.016-0.032,0.031-0.032,0.047h0.016
				c0,0.018-0.016,0.049-0.016,0.066c0,0.016,0.016,0.047,0.032,0.064h-0.032c0.016,0.016,0.016,0.031,0.049,0.047
				c0.274,0.178,0.469,0.453,0.694,0.662c0.953,0.84,1.954,1.617,2.424,3.232c0,0-2.585,0.402-4.54-1.891
				C45.417,76.135,44.949,75.537,44.852,74.906L44.852,74.906z"/>
			<path fill-rule="evenodd" clip-rule="evenodd" fill="#FFFFFF" d="M81.345,12.6L81.345,12.6L81.345,12.6
				c0.015,0,0.032,0.018,0.047,0.018l0,0c2.602,1.631,4.006,5.072,2.649,8.432c-0.048-0.016-0.08-0.049-0.112-0.064
				c-0.016,0.033-0.032,0.082-0.049,0.113c-3.021-2.02-3.796-5.67-2.535-8.48V12.6z"/>
		</g>
		<g>
			<path fill-rule="evenodd" clip-rule="evenodd" fill="#FFFFFF" d="M4.336,25.039c0.018,0,0.05,0.018,0.065,0.018
				c0.017,0,0.032,0,0.064,0.016v-0.016c0.598,0.062,1.26-0.242,2.052-0.631c2.536-1.293,2.747-3.781,2.747-3.781
				c-1.6,0.082-2.537,0.824-3.522,1.52c-0.242,0.178-0.549,0.291-0.759,0.5c-0.033,0.018-0.049,0.033-0.065,0.033v-0.016
				c-0.016,0-0.032,0-0.064,0c-0.016,0-0.032-0.018-0.048-0.033v0.033c-0.018-0.018-0.032-0.033-0.049-0.049
				c-0.129-0.291-0.355-0.5-0.517-0.76c-0.646-1.018-1.244-2.051-2.698-2.73c0,0-0.742,2.375,1.147,4.523
				C3.254,24.344,3.756,24.861,4.336,25.039L4.336,25.039z"/>
			<path fill-rule="evenodd" clip-rule="evenodd" fill="#FFFFFF" d="M3.966,28.949c0.016,0,0.032,0,0.064,0
				c0.016,0.016,0.031,0.016,0.048,0.016l0,0c0.614-0.016,1.228-0.371,1.987-0.857c2.406-1.533,2.359-4.021,2.359-4.021
				c-1.584,0.242-2.44,1.066-3.361,1.857c-0.226,0.211-0.501,0.355-0.71,0.582c-0.018,0.016-0.033,0.033-0.049,0.033v-0.018
				c-0.016,0-0.049,0.018-0.064,0.018c-0.017-0.018-0.032-0.018-0.049-0.033l-0.016,0.016c-0.017,0-0.032-0.016-0.032-0.031
				c-0.162-0.275-0.42-0.469-0.598-0.695c-0.76-0.953-1.454-1.922-2.973-2.439c0,0-0.484,2.439,1.599,4.379
				C2.819,28.367,3.369,28.836,3.966,28.949L3.966,28.949z"/>
			<path fill-rule="evenodd" clip-rule="evenodd" fill="#FFFFFF" d="M3.675,33.23c0.017,0,0.031,0,0.063,0
				c0.018,0,0.033,0.016,0.05,0.016l0.016-0.016c0.598-0.033,1.195-0.42,1.922-0.938c2.327-1.664,2.166-4.135,2.166-4.135
				c-1.568,0.307-2.392,1.195-3.264,2.018c-0.227,0.211-0.484,0.373-0.679,0.613c-0.016,0.018-0.032,0.033-0.048,0.033v-0.016
				c-0.033,0-0.049,0.016-0.065,0.016c-0.015,0-0.032-0.016-0.064-0.016v0.016c-0.016,0-0.033-0.016-0.048-0.033
				c-0.162-0.258-0.42-0.451-0.63-0.678c-0.792-0.904-1.536-1.842-3.07-2.293c0,0-0.371,2.471,1.81,4.312
				C2.496,32.695,3.062,33.148,3.675,33.23L3.675,33.23z"/>
			<path fill-rule="evenodd" clip-rule="evenodd" fill="#FFFFFF" d="M4.127,37.365c0.017,0,0.032-0.016,0.064-0.016
				c0.017,0,0.032,0,0.049,0.016V37.35c0.613-0.064,1.195-0.484,1.89-1.035c2.246-1.775,1.955-4.248,1.955-4.248
				c-1.567,0.404-2.327,1.324-3.167,2.197c-0.21,0.209-0.468,0.387-0.646,0.646c-0.017,0.016-0.032,0.031-0.049,0.031v-0.016
				c-0.016,0-0.048,0.016-0.064,0.016c-0.016,0-0.032-0.016-0.049-0.016v0.016c-0.032,0-0.049-0.016-0.049-0.031
				c-0.193-0.26-0.451-0.42-0.678-0.646c-0.84-0.855-1.615-1.762-3.182-2.133c0,0-0.242,2.488,2.019,4.217
				c0.711,0.533,1.293,0.953,1.906,1.002V37.365z"/>
			<path fill-rule="evenodd" clip-rule="evenodd" fill="#FFFFFF" d="M4.499,42.42c0.017,0,0.049-0.016,0.064-0.016
				c0.017,0,0.033,0,0.049,0v-0.016c0.614-0.113,1.131-0.598,1.777-1.211c2.036-1.986,1.485-4.41,1.485-4.41
				c-1.501,0.549-2.164,1.551-2.906,2.504c-0.18,0.227-0.421,0.42-0.582,0.693c0,0.018-0.017,0.033-0.032,0.033v-0.016
				c-0.033,0.016-0.049,0.016-0.064,0.033c-0.017,0-0.049-0.018-0.065-0.018v0.018c-0.016,0-0.032-0.018-0.048-0.033
				c-0.21-0.227-0.484-0.371-0.727-0.566c-0.922-0.742-1.811-1.566-3.394-1.76c0,0,0.017,2.471,2.456,3.957
				c0.742,0.453,1.372,0.807,1.986,0.791V42.42z"/>
			<path fill-rule="evenodd" clip-rule="evenodd" fill="#FFFFFF" d="M5.968,47.283c0.017,0,0.033,0,0.065-0.016
				c0.017,0,0.032-0.016,0.048-0.016l0,0c0.566-0.26,0.986-0.842,1.471-1.568c1.6-2.375,0.565-4.635,0.565-4.635
				c-1.356,0.855-1.81,1.953-2.326,3.053c-0.146,0.275-0.34,0.518-0.437,0.807c0,0.033-0.016,0.049-0.032,0.049v-0.016
				c-0.017,0.016-0.032,0.031-0.049,0.031c-0.032,0.016-0.048,0-0.064,0v0.033c-0.016,0-0.032-0.018-0.049-0.033
				c-0.258-0.178-0.564-0.258-0.84-0.402c-1.05-0.551-2.083-1.18-3.683-1.051c0,0,0.518,2.439,3.215,3.393
				C4.676,47.203,5.371,47.412,5.968,47.283L5.968,47.283z"/>
			<path fill-rule="evenodd" clip-rule="evenodd" fill="#FFFFFF" d="M8.247,52.146c0.033-0.018,0.049-0.018,0.065-0.033
				c0.016-0.016,0.031-0.016,0.048-0.031l0,0c0.501-0.355,0.792-1.02,1.115-1.842c1.082-2.635-0.405-4.654-0.405-4.654
				c-1.146,1.115-1.372,2.295-1.647,3.475c-0.08,0.291-0.226,0.564-0.258,0.871c0,0.033,0,0.049-0.017,0.066L7.132,49.98
				c-0.016,0.018-0.016,0.033-0.032,0.049c-0.017,0-0.05,0-0.065,0l0.016,0.033c-0.031,0-0.048,0-0.062-0.016
				c-0.292-0.131-0.599-0.146-0.89-0.227c-1.163-0.324-2.294-0.729-3.828-0.275c0,0,1.001,2.277,3.828,2.666
				c0.89,0.113,1.6,0.178,2.148-0.082V52.146z"/>
			<path fill-rule="evenodd" clip-rule="evenodd" fill="#FFFFFF" d="M10.476,56.701c0.016-0.016,0.033-0.031,0.049-0.031
				c0.032-0.018,0.048-0.033,0.064-0.033v-0.016c0.484-0.355,0.792-1.002,1.114-1.826c1.082-2.648-0.403-4.652-0.403-4.652
				c-1.146,1.115-1.373,2.293-1.648,3.457c-0.08,0.307-0.226,0.582-0.258,0.889c0,0.031,0,0.049-0.017,0.064L9.362,54.52
				c-0.017,0.033-0.032,0.049-0.032,0.049c-0.033,0.018-0.049,0.018-0.064,0.018v0.016c-0.018,0.016-0.032,0-0.049,0
				c-0.292-0.129-0.599-0.146-0.904-0.227c-1.147-0.34-2.278-0.727-3.813-0.275c0,0,1.002,2.279,3.829,2.65
				c0.872,0.129,1.6,0.193,2.148-0.064V56.701z"/>
			<path fill-rule="evenodd" clip-rule="evenodd" fill="#FFFFFF" d="M13.835,60.949c0.018-0.016,0.033-0.031,0.049-0.047
				c0.017-0.018,0.033-0.018,0.049-0.033v-0.016c0.42-0.438,0.597-1.131,0.775-1.988c0.581-2.811-1.228-4.506-1.228-4.506
				c-0.938,1.291-0.938,2.488-1.018,3.699c-0.017,0.307-0.113,0.598-0.081,0.904c0,0.031,0,0.049-0.017,0.064l-0.016-0.016
				c0,0.016-0.017,0.049-0.032,0.064c-0.017,0-0.032,0-0.064,0.016l0.016,0.016c-0.016,0-0.032,0.018-0.048,0
				c-0.308-0.064-0.614-0.031-0.921-0.064c-1.196-0.113-2.391-0.307-3.812,0.42c0,0,1.39,2.053,4.248,1.924
				c0.889-0.033,1.599-0.098,2.1-0.453V60.949z"/>
			<path fill-rule="evenodd" clip-rule="evenodd" fill="#FFFFFF" d="M17.583,64.246c0-0.018,0.017-0.033,0.032-0.049
				c0.017,0,0.033-0.018,0.033-0.033v-0.016c0.339-0.5,0.388-1.229,0.403-2.1c0.064-2.859-2.02-4.217-2.02-4.217
				c-0.679,1.453-0.468,2.633-0.323,3.828c0.032,0.307,0,0.615,0.081,0.904c0,0.033,0,0.049,0,0.064l-0.032-0.016
				c0,0.033,0,0.049-0.017,0.064c-0.016,0.016-0.032,0.033-0.048,0.033l0.016,0.016c-0.016,0.016-0.032,0.016-0.064,0.016
				c-0.306-0.016-0.613,0.082-0.904,0.098c-1.212,0.098-2.407,0.129-3.683,1.098c0,0,1.744,1.777,4.539,1.131
				c0.856-0.193,1.551-0.387,1.971-0.822H17.583z"/>
			<path fill-rule="evenodd" clip-rule="evenodd" fill="#FFFFFF" d="M21.413,67.783c0.017-0.016,0.032-0.033,0.032-0.049
				c0.016-0.016,0.032-0.031,0.049-0.049h-0.017c0.323-0.533,0.355-1.242,0.34-2.131c-0.017-2.861-2.149-4.137-2.149-4.137
				c-0.646,1.471-0.388,2.633-0.21,3.828c0.048,0.309,0.017,0.615,0.113,0.922c0,0.016,0,0.031,0,0.049l-0.016-0.018
				c0,0.033-0.018,0.049-0.018,0.066c-0.016,0.016-0.032,0.031-0.063,0.031l0.016,0.016c-0.016,0.018-0.032,0.018-0.049,0.018
				c-0.306,0-0.613,0.096-0.92,0.145c-1.195,0.129-2.392,0.193-3.635,1.211c0,0,1.81,1.713,4.571,0.969
				C20.314,68.43,20.993,68.219,21.413,67.783L21.413,67.783z"/>
			<path fill-rule="evenodd" clip-rule="evenodd" fill="#FFFFFF" d="M25.968,70.109c0-0.016,0.016-0.033,0.016-0.049
				C26,70.045,26,70.027,26.017,70.012L26,69.996c0.21-0.564,0.097-1.275-0.098-2.133c-0.598-2.795-2.956-3.617-2.956-3.617
				c-0.322,1.566,0.162,2.664,0.582,3.795c0.112,0.275,0.146,0.598,0.29,0.855c0.017,0.033,0.017,0.049,0.017,0.066h-0.017
				c0,0.016,0,0.031-0.016,0.064c0,0-0.017,0.016-0.032,0.031l0.016,0.018c-0.016,0.016-0.031,0.016-0.048,0.031
				c-0.308,0.049-0.582,0.211-0.872,0.307c-1.147,0.389-2.295,0.695-3.312,1.939c0,0,2.116,1.309,4.669,0.016
				c0.791-0.389,1.421-0.727,1.728-1.26H25.968z"/>
			<path fill-rule="evenodd" clip-rule="evenodd" fill="#FFFFFF" d="M30.313,72.758c0-0.016,0.017-0.031,0.017-0.064
				c0.016-0.016,0.016-0.031,0.031-0.049h-0.016c0.21-0.58,0.097-1.275-0.097-2.148c-0.598-2.793-2.939-3.617-2.939-3.617
				c-0.34,1.566,0.146,2.664,0.564,3.795c0.113,0.275,0.146,0.598,0.291,0.873c0.017,0.016,0.017,0.033,0.017,0.049h-0.017
				c0,0.016,0,0.047-0.016,0.064c0,0.016-0.017,0.033-0.032,0.033l0.016,0.016c-0.016,0.016-0.032,0.031-0.048,0.031
				c-0.308,0.049-0.582,0.211-0.872,0.307c-1.147,0.373-2.311,0.695-3.329,1.924c0,0,2.117,1.324,4.686,0.049
				c0.775-0.404,1.404-0.744,1.729-1.262H30.313z"/>
			<path fill-rule="evenodd" clip-rule="evenodd" fill="#FFFFFF" d="M34.611,73.906c0.016-0.018,0.016-0.049,0.016-0.064
				c0.017-0.018,0.017-0.033,0.032-0.049h-0.016c0.146-0.598-0.065-1.293-0.355-2.133c-0.921-2.697-3.36-3.23-3.36-3.23
				c-0.13,1.582,0.468,2.617,1.033,3.699c0.13,0.258,0.211,0.564,0.389,0.824c0.016,0.016,0.016,0.031,0.016,0.047h-0.016
				c0,0.018,0,0.049,0,0.064c-0.017,0.018-0.017,0.033-0.049,0.049l0.032,0.018c-0.016,0.016-0.032,0.016-0.048,0.031
				c-0.308,0.08-0.55,0.275-0.824,0.404c-1.1,0.516-2.197,0.969-3.069,2.311c0,0,2.262,1.049,4.637-0.518
				C33.77,74.875,34.352,74.455,34.611,73.906L34.611,73.906z"/>
			<path fill-rule="evenodd" clip-rule="evenodd" fill="#FFFFFF" d="M39.585,74.504c0-0.018,0-0.033,0-0.064
				c0.017-0.018,0.017-0.033,0.017-0.064l0,0c-0.017-0.631-0.404-1.262-0.889-2.037c-1.615-2.471-4.184-2.406-4.184-2.406
				c0.259,1.631,1.131,2.52,1.938,3.457c0.21,0.227,0.372,0.518,0.613,0.727c0.017,0.016,0.033,0.033,0.033,0.049h-0.033
				c0.017,0.033,0.017,0.049,0.033,0.064c-0.017,0.016-0.017,0.049-0.033,0.064h0.017c0,0.016-0.017,0.031-0.032,0.049
				c-0.274,0.162-0.485,0.42-0.728,0.613c-0.969,0.791-1.97,1.52-2.504,3.086c0,0,2.537,0.5,4.54-1.68
				C38.988,75.699,39.472,75.133,39.585,74.504L39.585,74.504z"/>
			<path fill-rule="evenodd" clip-rule="evenodd" fill="#FFFFFF" d="M44.368,74.906c0-0.016,0-0.047,0-0.064
				c0-0.016,0-0.047,0-0.064l0,0c-0.033-0.646-0.452-1.275-0.985-2.035c-1.746-2.455-4.362-2.293-4.362-2.293
				c0.34,1.662,1.261,2.52,2.133,3.439c0.227,0.242,0.388,0.518,0.646,0.729c0.017,0.016,0.032,0.031,0.032,0.047h-0.016
				c0,0.018,0.016,0.049,0.016,0.066c0,0.016-0.016,0.047-0.032,0.064h0.032c-0.016,0.016-0.016,0.031-0.048,0.047
				c-0.275,0.178-0.47,0.453-0.695,0.662c-0.953,0.84-1.954,1.617-2.424,3.232c0,0,2.585,0.402,4.54-1.891
				C43.802,76.135,44.271,75.537,44.368,74.906L44.368,74.906z"/>
			<path fill-rule="evenodd" clip-rule="evenodd" fill="#FFFFFF" d="M7.875,12.6L7.875,12.6L7.875,12.6
				c-0.016,0-0.032,0.018-0.047,0.018l0,0c-2.602,1.631-4.006,5.072-2.65,8.432C5.226,21.033,5.258,21,5.291,20.984
				c0.016,0.033,0.032,0.082,0.049,0.113c3.021-2.02,3.796-5.67,2.535-8.48V12.6z"/>
		</g>
	</g>
	<path fill-rule="evenodd" clip-rule="evenodd" fill="#FFFFFF" d="M74.027,25.557h-2.715v17.736L59.293,25.572h-5.089l0.033,21.855
		l-6.526-21.807h-5.815v6.43l0.08-0.275l3.184,11.227l-3.264-0.031v2.535l3.844,0.018l1.697,5.492l6.816,0.031v0.016h1.066h1.632
		V35.088l11.194,15.943l6.026-0.049L74.027,25.557z M41.896,25.621h-0.985l-7.124,22.955L22.979,48.43l0.05-9.998h7.882l0.05-2.584
		h-7.932l-0.05-7.643l9.37-0.064l0.209-2.584H15.047v25.506l20.807-0.047l-0.129-0.162l0.178,0.098l1.761-5.477l4.232,0.031v-2.535
		l-3.279-0.033l3.279-10.887V25.621z"/>
	<path fill-rule="evenodd" clip-rule="evenodd" fill="#FFFFFF" d="M78.388,9.758V8.691c0.613-0.145,1.098-0.469,1.47-0.969
		c0.549-0.711,0.808-1.762,0.808-3.135c0-1.18-0.274-2.068-0.823-2.682c-0.372-0.42-0.856-0.693-1.454-0.822V0
		c1.454,0.018,2.569,0.42,3.359,1.213c0.793,0.807,1.18,1.971,1.18,3.473c0,1.631-0.436,2.891-1.34,3.764
		C80.81,9.225,79.745,9.645,78.388,9.758z M78.388,0v1.084c-0.291-0.066-0.614-0.113-0.953-0.113c-0.469,0-0.889,0.031-1.293,0.064
		c-0.032,1.098-0.048,2.391-0.048,3.844c0,1.471,0.016,2.762,0.048,3.861c0.404,0.047,0.856,0.064,1.325,0.064
		c0.339,0,0.646-0.049,0.921-0.113v1.066c-0.21,0.016-0.42,0.016-0.646,0.016c-0.129,0-0.42,0-0.855-0.033
		c-0.452-0.016-0.921-0.047-1.422-0.08c-0.194-0.016-0.452,0-0.743,0.016c-0.291,0.018-0.549,0.049-0.759,0.098
		c0.031-0.227,0.048-0.436,0.048-0.678c0.017-0.227,0.032-0.582,0.048-1.051c0.017-0.92,0.033-1.971,0.033-3.15
		c0-1.178-0.017-2.229-0.033-3.166c-0.016-0.467-0.031-0.824-0.048-1.049c0-0.242-0.017-0.453-0.048-0.68
		c0.307,0.064,0.662,0.098,1.082,0.113s0.791,0.016,1.098,0c0.501-0.033,0.954-0.064,1.39-0.08C77.952,0.018,78.21,0,78.323,0
		H78.388L78.388,0z M68.679,7.527V6.865c0.323,0,0.646-0.016,0.938-0.049L69.6,6.785c-0.323-0.84-0.63-1.615-0.905-2.311l0,0
		l-0.016,0.018V2.52l0.032-0.047c0.146,0.016,0.291,0.016,0.404,0.016c0.114,0,0.242,0,0.403-0.016
		c0.355,0.969,0.824,2.18,1.405,3.617c0.356,0.857,0.663,1.633,0.954,2.311c0.178,0.404,0.307,0.695,0.371,0.855
		c0.081,0.178,0.162,0.324,0.209,0.438c-0.257-0.018-0.58-0.033-0.92-0.033c-0.355,0-0.662,0.016-0.937,0.033
		c-0.097-0.373-0.177-0.646-0.226-0.824c-0.05-0.178-0.114-0.322-0.162-0.469l-0.308-0.791C69.535,7.561,69.116,7.545,68.679,7.527z
		 M68.679,2.52v1.973c-0.193,0.484-0.403,0.984-0.613,1.551l-0.308,0.773c0.275,0.033,0.581,0.049,0.904,0.049h0.017v0.662
		c-0.032,0-0.08,0-0.113,0c-0.42,0-0.775,0.033-1.113,0.098c-0.114,0.258-0.211,0.518-0.292,0.775
		c-0.048,0.08-0.08,0.211-0.13,0.387c-0.047,0.178-0.128,0.469-0.258,0.906c-0.161-0.018-0.339-0.033-0.55-0.033
		c-0.209,0-0.387,0.016-0.549,0.033c0.049-0.113,0.13-0.26,0.21-0.42c0.082-0.178,0.211-0.469,0.404-0.873
		c0.307-0.678,0.63-1.453,0.984-2.311C67.872,4.686,68.339,3.49,68.679,2.52L68.679,2.52z M61.555,9.725V8.934
		c0.47-0.113,0.84-0.355,1.115-0.727c0.404-0.533,0.613-1.309,0.613-2.342c0-0.889-0.209-1.568-0.63-2.02
		c-0.274-0.307-0.646-0.518-1.099-0.615V2.424c1.099,0,1.939,0.307,2.521,0.904c0.598,0.598,0.904,1.471,0.904,2.602
		c0,1.227-0.339,2.164-1.018,2.826C63.38,9.338,62.574,9.66,61.555,9.725z M61.555,2.424V3.23c-0.21-0.064-0.452-0.08-0.71-0.08
		c-0.339,0-0.662,0.016-0.97,0.033c-0.017,0.84-0.032,1.793-0.032,2.891c0,1.115,0.016,2.068,0.032,2.891
		c0.308,0.033,0.646,0.049,1.001,0.049c0.242,0,0.484-0.031,0.679-0.08v0.791C61.411,9.74,61.249,9.74,61.071,9.74
		c-0.097,0-0.308,0-0.63-0.016c-0.34-0.016-0.695-0.031-1.066-0.064c-0.161,0-0.339,0-0.565,0.016
		c-0.21,0.018-0.403,0.033-0.565,0.064c0.016-0.16,0.033-0.322,0.049-0.5c0-0.178,0.017-0.436,0.032-0.791
		c0-0.695,0.017-1.486,0.017-2.359c0-0.889-0.017-1.68-0.017-2.373c-0.016-0.355-0.032-0.631-0.032-0.793
		c-0.016-0.178-0.033-0.338-0.049-0.5c0.226,0.033,0.501,0.064,0.808,0.08c0.323,0.016,0.598,0.016,0.824,0
		c0.371-0.031,0.728-0.047,1.034-0.064c0.322-0.016,0.517-0.016,0.613-0.016H61.555L61.555,2.424z M44.982,7.576V5.783
		c0.161-0.064,0.307-0.178,0.436-0.322c0.242-0.291,0.354-0.662,0.354-1.115c0-0.404-0.096-0.711-0.289-0.92
		c-0.13-0.146-0.308-0.242-0.501-0.291V2.488l0.355-0.016c0.678,0,1.195,0.16,1.566,0.484c0.388,0.338,0.565,0.791,0.565,1.373
		s-0.226,1.049-0.695,1.389c-0.258,0.178-0.597,0.324-0.984,0.404c0.274,0.469,0.614,1.033,1.017,1.695l0.372,0.598
		c0.242,0.371,0.42,0.646,0.533,0.824c0.112,0.178,0.227,0.322,0.34,0.469c-0.275-0.016-0.598-0.033-0.954-0.033
		c-0.354,0-0.662,0.018-0.936,0.033c-0.211-0.436-0.502-0.953-0.857-1.551C45.192,7.949,45.078,7.754,44.982,7.576L44.982,7.576z
		 M52.347,3.861c-0.096-0.291-0.242-0.5-0.436-0.646c-0.194-0.129-0.437-0.193-0.76-0.193c-0.307,0-0.564,0.08-0.76,0.258
		c-0.209,0.178-0.307,0.404-0.307,0.662c0,0.291,0.098,0.518,0.307,0.711c0.195,0.195,0.566,0.42,1.132,0.68
		c0.565,0.273,0.985,0.58,1.243,0.92c0.26,0.355,0.404,0.775,0.404,1.244c0,0.662-0.258,1.211-0.743,1.664
		c-0.484,0.436-1.098,0.646-1.825,0.646c-0.308,0-0.613-0.033-0.938-0.113c-0.307-0.064-0.613-0.178-0.888-0.309
		c0.081-0.242,0.129-0.467,0.178-0.645c0.048-0.178,0.097-0.389,0.129-0.646h0.227c0.129,0.371,0.307,0.646,0.532,0.824
		c0.227,0.178,0.517,0.258,0.889,0.258c0.355,0,0.63-0.098,0.872-0.291c0.228-0.211,0.34-0.453,0.34-0.76
		c0-0.273-0.097-0.516-0.308-0.727c-0.209-0.193-0.613-0.436-1.227-0.727c-0.533-0.242-0.938-0.549-1.196-0.871
		c-0.242-0.34-0.371-0.744-0.371-1.213c0-0.629,0.21-1.162,0.663-1.6c0.435-0.42,0.984-0.629,1.646-0.629
		c0.308,0,0.598,0.031,0.873,0.113c0.274,0.064,0.581,0.193,0.872,0.355c-0.065,0.193-0.13,0.355-0.178,0.5
		s-0.113,0.322-0.162,0.518L52.347,3.861L52.347,3.861z M54.641,8.4c0-0.695,0.017-1.471,0.017-2.311c0-0.871,0-1.646-0.017-2.326
		c-0.016-0.355-0.032-0.613-0.032-0.791c-0.016-0.162-0.033-0.34-0.049-0.5c0.259,0.016,0.534,0.031,0.857,0.031
		c0.306,0,0.598-0.016,0.84-0.031c-0.017,0.16-0.033,0.322-0.033,0.5c-0.017,0.178-0.032,0.436-0.032,0.791
		c-0.017,0.695-0.031,1.471-0.031,2.311c0,0.873,0.015,1.648,0.031,2.326c0,0.355,0.016,0.613,0.032,0.791
		c0,0.178,0.017,0.34,0.033,0.502c-0.242-0.018-0.534-0.033-0.84-0.033c-0.323,0-0.599,0.016-0.857,0.033
		c0.016-0.162,0.033-0.34,0.049-0.502C54.609,9.014,54.625,8.756,54.641,8.4z M16.001,5.25c0.016,1.535-0.34,2.682-1.051,3.457
		c-0.711,0.76-1.777,1.146-3.199,1.146c-1.372,0-2.406-0.338-3.101-1.018C7.956,8.143,7.618,7.107,7.6,5.752v-0.76L7.585,1.793
		c0-0.404,0-0.727-0.017-0.951C7.552,0.615,7.536,0.355,7.503,0.08c0.339,0.018,0.711,0.033,1.132,0.033
		c0.435,0,0.807-0.016,1.146-0.033C9.749,0.34,9.717,0.598,9.701,0.824C9.685,1.051,9.668,1.373,9.652,1.793
		C9.636,2.746,9.62,3.797,9.62,4.977v0.58c0,1.115,0.21,1.924,0.63,2.455c0.437,0.535,1.083,0.809,1.972,0.809
		c0.856,0,1.519-0.307,1.954-0.904c0.452-0.582,0.679-1.455,0.679-2.602V4.992l-0.017-3.199c0-0.436-0.016-0.775-0.032-1
		c0-0.227-0.016-0.469-0.048-0.713c0.21,0.018,0.452,0.033,0.71,0.033c0.274,0,0.502-0.016,0.711-0.033
		c-0.049,0.324-0.064,0.6-0.097,0.824c-0.016,0.227-0.016,0.533-0.032,0.889c-0.032,0.953-0.048,2.004-0.048,3.184V5.25L16.001,5.25
		z M44.982,2.488v0.646c-0.114-0.016-0.227-0.033-0.339-0.033c-0.146,0-0.309,0.018-0.453,0.033v2.73l0.307,0.016
		c0.161,0,0.323-0.033,0.485-0.098v1.793c-0.292-0.484-0.534-0.92-0.776-1.309l0,0c0,0.791,0,1.502,0.017,2.133
		c0.016,0.355,0.016,0.613,0.032,0.791c0,0.178,0.017,0.34,0.033,0.502C44.044,9.676,43.77,9.66,43.447,9.66
		s-0.598,0.016-0.856,0.033c0.033-0.162,0.033-0.324,0.048-0.502c0.018-0.178,0.018-0.436,0.032-0.791
		c0.018-0.695,0.018-1.471,0.018-2.311c0-0.871,0-1.646-0.018-2.326c-0.015-0.355-0.015-0.613-0.032-0.791
		c-0.015-0.178-0.015-0.34-0.048-0.5l0.565,0.031h0.291h0.678L44.982,2.488L44.982,2.488z M19.07,8.4
		c0.016,0.355,0.016,0.613,0.033,0.791c0.015,0.178,0.032,0.34,0.047,0.502c-0.145-0.018-0.289-0.033-0.468-0.033
		c-0.161,0-0.323,0.016-0.452,0.033c0.016-0.162,0.033-0.324,0.049-0.502c0-0.178,0.016-0.436,0.032-0.791
		c0.015-0.695,0.015-1.471,0.015-2.342c0-0.84,0-1.615-0.015-2.295c-0.017-0.355-0.032-0.629-0.032-0.791
		c-0.016-0.178-0.033-0.34-0.049-0.5c0.161,0.016,0.323,0.016,0.518,0.016c0.177,0,0.355,0,0.5-0.016
		c0.646,0.822,1.503,1.809,2.569,2.973l1.874,2.002V6.09c0-0.855,0-1.631-0.017-2.326c0-0.355-0.017-0.613-0.033-0.791
		c0-0.162-0.016-0.34-0.032-0.5c0.13,0.016,0.274,0.031,0.452,0.031c0.179,0,0.324-0.016,0.453-0.031
		c-0.017,0.16-0.033,0.322-0.033,0.5c-0.016,0.178-0.032,0.436-0.032,0.791c-0.016,0.695-0.031,1.471-0.031,2.344
		c0,1.438,0.031,2.633,0.063,3.586c-0.177-0.018-0.338-0.033-0.468-0.033s-0.274,0.016-0.452,0.033
		c-0.84-1.02-1.923-2.246-3.247-3.699l-1.261-1.342v1.422C19.053,6.93,19.053,7.705,19.07,8.4L19.07,8.4z M26.565,8.4
		c0.017-0.695,0.032-1.471,0.032-2.311c0-0.871,0-1.646-0.032-2.326c0-0.355-0.016-0.613-0.032-0.791c0-0.162-0.016-0.34-0.032-0.5
		c0.243,0.016,0.534,0.031,0.841,0.031c0.323,0,0.613-0.016,0.855-0.031c-0.016,0.16-0.032,0.322-0.048,0.5
		c0,0.178-0.017,0.436-0.017,0.791C28.117,4.459,28.1,5.234,28.1,6.074c0,0.873,0.017,1.648,0.032,2.326
		c0,0.355,0.017,0.613,0.017,0.791c0.016,0.178,0.032,0.34,0.048,0.502c-0.242-0.018-0.532-0.033-0.84-0.033
		c-0.322,0-0.613,0.016-0.856,0.033c0.017-0.162,0.032-0.34,0.032-0.502C26.549,9.014,26.565,8.756,26.565,8.4L26.565,8.4z
		 M30.006,3.764c-0.13-0.355-0.242-0.629-0.322-0.807c-0.065-0.162-0.146-0.324-0.228-0.484c0.274,0.016,0.582,0.031,0.922,0.031
		c0.354,0,0.662-0.016,0.937-0.031c0.097,0.371,0.161,0.629,0.21,0.807s0.097,0.34,0.162,0.484l0.565,1.633l0.888,2.357l0,0
		l0.614-1.646c0.308-0.857,0.598-1.648,0.84-2.344c0.017-0.047,0.049-0.16,0.097-0.338c0.049-0.178,0.129-0.486,0.258-0.953
		c0.163,0.016,0.355,0.031,0.55,0.031c0.21,0,0.388-0.016,0.55-0.031c-0.032,0.08-0.098,0.209-0.162,0.387
		c-0.08,0.162-0.21,0.469-0.388,0.904L34.578,6.09c-0.549,1.438-1.001,2.633-1.34,3.604c-0.179-0.018-0.34-0.033-0.485-0.033
		c-0.129,0-0.291,0.016-0.484,0.033c-0.339-0.971-0.792-2.182-1.341-3.619L30.006,3.764L30.006,3.764z M37.178,9.74
		c0.018-0.16,0.033-0.322,0.049-0.5c0-0.162,0.017-0.42,0.033-0.775c0-0.711,0.016-1.502,0.016-2.391
		c0-0.873-0.016-1.664-0.016-2.375c-0.017-0.355-0.033-0.613-0.033-0.775c-0.016-0.178-0.031-0.338-0.049-0.5
		c0.194,0.016,0.438,0.033,0.743,0.049c0.307,0.016,0.599,0.031,0.856,0.031h0.339c0.453,0,0.89-0.016,1.31-0.031
		c0.403-0.016,0.662-0.033,0.759-0.064c-0.017,0.145-0.032,0.307-0.032,0.484s0.016,0.338,0.032,0.484
		c-0.113-0.033-0.355-0.049-0.711-0.064c-0.355-0.033-0.728-0.033-1.098-0.033h-0.162h-0.437V5.59h0.824
		c0.29,0,0.598-0.016,0.905-0.033c0.322-0.016,0.532-0.031,0.646-0.047c-0.032,0.129-0.032,0.273-0.032,0.451s0,0.324,0.032,0.451
		c-0.113-0.016-0.323-0.031-0.646-0.047C40.2,6.35,39.892,6.332,39.602,6.332h-0.824v2.553h0.064h0.274c0.42,0,0.841,0,1.244-0.031
		c0.421-0.018,0.695-0.049,0.824-0.082c-0.017,0.146-0.032,0.307-0.032,0.502c0,0.178,0.016,0.338,0.032,0.484
		c-0.291-0.033-0.662-0.049-1.066-0.064c-0.42-0.018-0.742-0.033-1.002-0.033h-0.339c-0.258,0-0.55,0.016-0.856,0.033
		C37.616,9.709,37.373,9.725,37.178,9.74z"/>
</g>
</svg>
